<?xml version="1.0" standalone="no"?>
<!DOCTYPE svg PUBLIC "-//W3C//DTD SVG 20010904//EN"
 "http://www.w3.org/TR/2001/REC-SVG-20010904/DTD/svg10.dtd">
<svg version="1.0" xmlns="http://www.w3.org/2000/svg"
 width="2083.000000pt" height="1902.000000pt" viewBox="0 0 2083.000000 1902.000000"
 preserveAspectRatio="xMidYMid meet">

<g transform="translate(0.000000,1902.000000) scale(0.100000,-0.100000)"
fill="#000000" stroke="none">
<path d="M3120 19014 c-14 -2 -59 -9 -100 -15 -392 -55 -802 -279 -1072 -584
-149 -168 -286 -400 -354 -596 -14 -41 -378 -1354 -810 -2918 -875 -3172 -796
-2853 -774 -3127 100 -1259 982 -2314 2195 -2629 1163 -302 2381 126 3101
1088 59 78 111 152 117 165 6 12 13 22 16 22 3 0 19 -21 36 -48 128 -204 435
-538 635 -692 550 -422 1153 -630 1825 -630 959 0 1837 456 2403 1248 45 62
83 114 86 115 3 1 33 -38 67 -88 104 -150 207 -273 344 -410 461 -462 1027
-744 1690 -842 185 -27 621 -25 810 5 815 127 1506 552 1983 1220 45 62 84
113 87 113 3 0 42 -51 86 -113 367 -512 865 -887 1449 -1089 451 -157 972
-199 1450 -118 488 82 946 287 1340 599 124 98 368 340 464 460 329 412 546
909 620 1421 11 71 16 180 16 327 l0 220 -780 2825 c-428 1554 -795 2867 -815
2918 -224 581 -722 997 -1351 1131 l-109 23 -7315 1 c-4023 1 -7326 0 -7340
-2z m2696 -941 c-3 -21 -170 -1233 -371 -2693 -201 -1460 -367 -2665 -370
-2677 l-5 -23 -1971 0 -1971 0 5 28 c3 15 303 1104 666 2420 720 2609 679
2474 798 2629 136 179 368 313 590 342 37 5 646 9 1351 10 l1284 1 -6 -37z
m8288 0 c4 -21 170 -1230 371 -2688 200 -1457 367 -2662 369 -2677 l6 -28
-1985 0 -1985 0 0 2715 0 2715 1609 0 1609 0 6 -37z m-4132 -5848 l3 -445
-2037 0 -2038 0 0 445 0 445 2035 0 2035 0 2 -445z m9851 91 c53 -195 97 -366
97 -382 0 -15 -5 -56 -11 -91 l-11 -63 -2007 2 -2006 3 -12 120 c-7 66 -31
260 -53 430 -22 171 -40 316 -40 323 0 9 401 12 1973 12 l1973 0 97 -354z
m-14868 -593 c-37 -268 -145 -569 -288 -800 -625 -1007 -1977 -1265 -2921
-556 -427 320 -723 826 -792 1351 l-7 52 2007 0 2007 0 -6 -47z m9940 0 c-52
-369 -212 -738 -442 -1023 -79 -97 -257 -270 -353 -341 -604 -451 -1423 -519
-2095 -173 -505 260 -880 738 -1026 1308 -22 85 -49 229 -49 259 0 16 101 17
1986 17 l1986 0 -7 -47z"/>
<path d="M5405 9044 c-75 -64 -303 -230 -401 -292 -1041 -659 -2314 -780
-3454 -330 -151 59 -411 186 -539 262 -51 31 -95 56 -97 56 -2 0 -3 -1709 -1
-3797 l3 -3798 21 -85 c47 -186 109 -327 203 -468 197 -294 524 -511 870 -576
74 -14 899 -16 8417 -16 7529 0 8341 2 8411 16 270 55 509 182 701 375 191
190 308 407 378 699 17 71 18 262 20 3863 2 2083 1 3787 -2 3787 -2 0 -69 -37
-147 -82 -775 -445 -1700 -604 -2576 -442 -620 114 -1195 374 -1686 761 -54
43 -104 82 -110 87 -8 5 -49 -21 -118 -77 -352 -280 -783 -511 -1213 -650
-590 -190 -1246 -233 -1855 -121 -624 115 -1227 389 -1709 778 -42 34 -82 66
-89 70 -6 4 -52 -26 -111 -73 -1170 -932 -2765 -1100 -4099 -432 -245 123
-461 260 -667 423 -60 48 -112 88 -115 88 -3 -1 -18 -12 -35 -26z m10151
-1379 c519 -71 965 -256 1392 -575 124 -92 424 -378 487 -463 l28 -38 -318
-319 -318 -318 -60 77 c-85 108 -245 263 -364 353 -366 275 -764 408 -1221
408 -347 0 -614 -62 -914 -211 -615 -305 -1033 -896 -1117 -1579 -16 -125 -13
-402 5 -531 118 -846 751 -1531 1584 -1713 357 -78 732 -59 1075 55 564 187
1019 613 1249 1171 20 48 36 89 36 92 0 3 -380 6 -845 6 l-845 0 0 445 0 445
1349 0 1349 0 7 -132 c12 -236 -25 -563 -94 -829 -99 -384 -305 -787 -565
-1109 -105 -129 -317 -340 -446 -443 -303 -243 -719 -452 -1089 -548 -913
-237 -1869 -27 -2601 572 -814 665 -1211 1715 -1039 2749 82 492 295 967 612
1362 105 132 313 340 447 448 319 255 719 457 1105 555 147 38 336 71 476 85
131 12 502 4 635 -15z"/>
</g>
</svg>
